<?xml version="1.0" standalone="no"?>
<!DOCTYPE svg PUBLIC "-//W3C//DTD SVG 20010904//EN"
 "http://www.w3.org/TR/2001/REC-SVG-20010904/DTD/svg10.dtd">
<svg version="1.0" xmlns="http://www.w3.org/2000/svg"
 width="270.545620pt" height="192.753012pt" viewBox="0 0 270.545620 192.753012"
 preserveAspectRatio="xMidYMid meet">
<metadata>
Created by potrace 1.12, written by Peter Selinger 2001-2015
</metadata>
<g transform="translate(-4.113541,235.042588) scale(0.100000,-0.100000)"
fill="#000000" stroke="none">
<path d="M1383 2327 c-17 -22 -18 -34 -8 -170 5 -81 7 -147 4 -147 -4 0 -10
61 -14 135 -4 74 -10 135 -14 135 -4 0 -16 -9 -28 -19 -20 -19 -20 -19 -2
-128 10 -59 17 -112 15 -118 -3 -12 -36 160 -36 193 0 23 -15 28 -40 12 -12
-8 -11 -22 9 -105 13 -53 21 -98 19 -100 -2 -3 -14 38 -27 90 -19 77 -26 95
-41 95 -29 0 -33 -17 -15 -71 10 -28 15 -52 13 -55 -3 -2 -12 21 -22 52 -12
38 -24 58 -39 63 -12 5 -24 7 -26 5 -3 -3 24 -85 52 -154 5 -14 11 -34 13 -45
1 -11 7 -32 13 -46 l10 -27 92 20 92 21 90 -20 89 -20 14 34 c8 19 14 39 13
46 -2 7 3 23 9 37 31 68 60 150 54 154 -20 11 -48 -15 -64 -60 -10 -27 -15
-35 -11 -19 12 58 9 80 -11 80 -16 0 -24 -17 -44 -93 -14 -51 -27 -91 -29 -88
-2 2 7 47 20 100 25 95 25 96 5 107 -11 6 -22 8 -26 5 -3 -3 -11 -36 -18 -73
-6 -38 -12 -59 -13 -48 0 11 3 47 9 79 8 51 7 63 -7 78 -9 10 -20 18 -24 18
-9 0 -16 -48 -26 -175 -3 -55 -9 -92 -11 -82 -2 11 1 77 7 149 10 122 10 131
-8 154 l-19 24 -19 -23z m86 -311 c-9 -8 -10 -7 -5 7 3 10 7 28 7 40 2 16 3
14 6 -7 3 -16 -1 -34 -8 -40z"/>
<path d="M956 2124 c-3 -9 -6 -29 -6 -44 0 -16 -4 -32 -10 -35 -18 -11 -11
-27 10 -22 28 7 35 -10 9 -23 -42 -23 -88 7 -58 37 9 9 1 22 -32 52 -63 60
-76 54 -79 -34 -3 -61 -2 -64 20 -58 15 4 20 0 20 -14 0 -24 -30 -53 -53 -53
-22 0 -22 9 1 26 16 12 16 13 -2 20 -11 4 -28 2 -40 -6 -19 -12 -20 -12 -8 3
11 13 10 19 -8 37 -29 29 -44 21 -48 -26 -2 -21 -8 -44 -13 -50 -11 -14 -1
-24 23 -24 22 0 23 -13 2 -34 -23 -24 -44 -20 -44 8 0 34 -28 38 -63 9 -16
-13 -35 -23 -43 -23 -8 0 -14 -9 -14 -19 0 -11 -4 -23 -10 -26 -29 -18 17 -65
62 -65 l33 1 -28 15 c-48 26 -32 48 38 52 63 3 90 19 106 60 7 18 16 22 49 22
30 0 47 7 65 25 14 13 25 28 25 34 0 6 22 7 54 4 50 -5 57 -3 80 21 20 23 28
26 45 17 46 -25 101 -8 101 31 0 17 -2 17 -29 -3 -24 -18 -32 -19 -52 -9 -21
12 -22 13 -5 26 19 13 14 34 -8 34 -7 0 -25 11 -40 25 -31 29 -42 31 -50 9z"/>
<path d="M1797 2116 c-14 -14 -31 -26 -40 -26 -24 0 -30 -17 -10 -29 17 -10
17 -12 -1 -26 -26 -20 -32 -19 -57 6 -24 24 -34 20 -24 -10 8 -27 49 -37 91
-22 30 11 35 9 59 -15 24 -23 32 -26 74 -21 45 5 49 4 74 -29 23 -28 34 -34
67 -34 34 0 42 -4 55 -30 20 -39 43 -50 109 -50 67 0 80 -15 40 -47 l-29 -23
26 0 c15 0 37 8 49 18 21 17 22 21 9 55 -7 20 -19 37 -26 37 -7 0 -21 9 -30
20 -10 11 -30 20 -46 20 -26 0 -29 -3 -25 -25 4 -19 1 -25 -12 -25 -10 0 -23
7 -30 15 -16 19 -6 47 15 39 17 -7 21 21 4 32 -6 3 -8 16 -5 28 3 13 0 31 -7
40 -12 17 -15 16 -44 -8 -17 -14 -38 -26 -46 -26 -22 0 -31 -19 -13 -26 20 -8
21 -24 1 -24 -20 0 -57 38 -52 53 2 7 12 12 23 12 16 0 19 7 19 48 0 55 -9 87
-25 87 -7 0 -24 -13 -40 -29 -16 -16 -36 -31 -45 -34 -19 -8 -19 -23 0 -31 21
-8 19 -23 -6 -36 -26 -15 -69 -5 -69 16 0 11 6 13 20 9 21 -7 28 13 11 31 -5
5 -11 24 -13 43 -4 44 -21 49 -51 17z"/>
<path d="M1017 1993 c-12 -11 -8 -23 8 -23 8 0 15 7 15 15 0 16 -12 20 -23 8z"/>
<path d="M1767 1993 c-12 -11 -8 -23 8 -23 8 0 15 7 15 15 0 16 -12 20 -23 8z"/>
<path d="M913 1902 c-122 -48 -225 -90 -229 -95 -4 -4 7 -20 25 -36 l32 -29
217 85 c119 46 220 87 224 91 10 10 -22 72 -36 72 -6 -1 -111 -40 -233 -88z"/>
<path d="M1632 1965 c-7 -14 -12 -32 -12 -39 0 -13 409 -176 441 -176 22 0 65
48 53 59 -11 10 -445 181 -460 181 -6 0 -16 -11 -22 -25z"/>
<path d="M875 1940 c-8 -13 4 -32 16 -25 12 8 12 35 0 35 -6 0 -13 -4 -16 -10z"/>
<path d="M1905 1940 c-4 -6 -3 -16 3 -22 6 -6 12 -6 17 2 4 6 3 16 -3 22 -6 6
-12 6 -17 -2z"/>
<path d="M1095 1831 c-154 -54 -288 -102 -299 -106 -17 -7 -18 -16 -11 -99 10
-132 49 -354 85 -481 61 -215 167 -391 345 -570 130 -131 167 -159 201 -151
33 9 254 229 322 321 106 142 184 328 230 545 27 123 52 306 52 375 l0 54 -77
29 c-148 57 -525 182 -546 182 -12 -1 -148 -45 -302 -99z m553 -16 c137 -46
270 -94 296 -105 l47 -20 -6 -62 c-55 -526 -167 -787 -460 -1067 -59 -55 -113
-101 -121 -101 -21 0 -144 110 -222 199 -126 142 -208 279 -256 426 -51 157
-105 444 -106 562 l0 51 43 15 c23 9 152 54 287 101 135 47 246 85 246 85 1 1
114 -37 252 -84z"/>
<path d="M1320 1855 c-36 -12 -146 -51 -245 -85 -239 -83 -235 -81 -235 -130
0 -107 49 -371 96 -521 65 -208 216 -419 417 -583 l47 -38 37 28 c21 15 81 71
133 123 149 150 234 283 290 450 44 132 89 356 97 482 l6 106 -44 15 c-24 9
-149 52 -277 97 -128 44 -238 81 -245 80 -7 0 -41 -11 -77 -24z m317 -84 c125
-43 244 -85 263 -93 l36 -15 -8 -99 c-11 -120 -48 -313 -84 -426 -33 -104 -87
-211 -155 -308 -60 -86 -262 -290 -287 -290 -9 0 -75 60 -147 133 -148 151
-218 255 -273 400 -52 140 -112 433 -112 551 l0 44 103 36 c246 87 413 144
424 145 6 0 114 -34 240 -78z"/>
<path d="M1340 1680 l-35 -29 43 -1 c40 0 42 1 42 30 0 37 -7 37 -50 0z"/>
<path d="M1410 1680 c0 -29 2 -30 43 -30 l42 1 -33 29 c-41 38 -52 38 -52 0z"/>
<path d="M1258 1679 c-21 -11 -38 -22 -38 -24 0 -3 15 -5 34 -5 25 0 38 6 50
25 20 31 6 32 -46 4z"/>
<path d="M1500 1675 c17 -18 34 -25 59 -25 l36 1 -45 24 c-60 32 -80 32 -50 0z"/>
<path d="M1175 1671 c-30 -15 -35 -20 -19 -20 12 -1 32 8 45 19 30 24 25 24
-26 1z"/>
<path d="M1599 1670 c13 -11 33 -20 44 -20 28 0 11 14 -33 28 l-35 12 24 -20z"/>
<path d="M1044 1588 c-24 -22 -43 -46 -41 -52 2 -5 20 -12 40 -14 32 -3 39 1
66 39 38 51 39 69 6 69 -16 0 -42 -16 -71 -42z"/>
<path d="M1163 1608 c-24 -27 -57 -77 -52 -80 2 0 30 -2 63 -3 57 -1 59 -1 71
29 31 76 31 76 -18 76 -32 0 -49 -6 -64 -22z"/>
<path d="M1275 1586 c-10 -25 -14 -49 -10 -55 9 -15 110 -14 123 2 6 7 8 31 5
55 l-6 42 -47 0 c-48 0 -49 0 -65 -44z"/>
<path d="M1414 1616 c-3 -8 -4 -31 -2 -52 l3 -39 60 1 c69 0 75 10 51 68 -14
34 -18 36 -61 36 -30 0 -47 -5 -51 -14z"/>
<path d="M1540 1616 c0 -21 22 -80 33 -87 12 -8 104 -5 113 4 7 6 -40 75 -60
89 -20 14 -86 9 -86 -6z"/>
<path d="M1660 1621 c0 -18 54 -91 71 -96 16 -6 67 0 75 8 3 2 -18 25 -45 50
-33 31 -59 47 -76 47 -14 0 -25 -4 -25 -9z"/>
<path d="M969 1483 c-6 -15 -11 -39 -12 -53 -2 -23 2 -25 45 -28 53 -3 63 7
69 68 l4 35 -48 3 c-44 3 -48 1 -58 -25z"/>
<path d="M1096 1501 c-4 -5 -9 -30 -12 -55 l-7 -46 71 0 c78 0 82 3 82 71 l0
39 -64 0 c-36 0 -67 -4 -70 -9z"/>
<path d="M1255 1498 c-3 -7 -6 -31 -8 -53 l-2 -40 63 -3 c72 -3 92 7 92 48 0
55 -7 60 -76 60 -43 0 -66 -4 -69 -12z"/>
<path d="M1414 1496 c-3 -8 -4 -31 -2 -52 l3 -39 70 0 c78 0 83 5 70 71 l-6
34 -65 0 c-46 0 -66 -4 -70 -14z"/>
<path d="M1573 1494 c-3 -9 -2 -33 3 -53 l9 -36 70 0 70 0 -3 29 c-9 69 -16
76 -82 76 -47 0 -62 -4 -67 -16z"/>
<path d="M1734 1464 c3 -25 8 -50 12 -55 3 -5 27 -9 55 -9 56 0 61 12 35 75
-14 33 -18 35 -62 35 l-47 0 7 -46z"/>
<path d="M954 1377 c-2 -7 1 -31 8 -53 13 -38 14 -39 63 -39 l50 0 -4 35 c-5
58 -16 70 -67 70 -28 0 -47 -5 -50 -13z"/>
<path d="M1084 1375 c-3 -8 -2 -32 3 -52 l9 -38 67 -3 67 -3 0 44 c0 23 -5 48
-12 55 -18 18 -127 16 -134 -3z"/>
<path d="M1245 1380 c-3 -6 -3 -30 1 -55 l6 -46 72 3 71 3 3 38 c5 56 -10 67
-84 67 -34 0 -66 -5 -69 -10z"/>
<path d="M1417 1384 c-4 -4 -7 -29 -7 -56 l0 -48 70 0 c65 0 70 2 76 24 3 13
4 37 2 52 -3 28 -5 29 -68 32 -36 2 -69 0 -73 -4z"/>
<path d="M1586 1381 c-4 -5 -9 -30 -12 -55 l-7 -46 71 0 70 0 10 47 c6 26 8
51 6 55 -7 11 -132 10 -138 -1z"/>
<path d="M1746 1381 c-4 -5 -9 -30 -12 -55 l-7 -46 51 0 51 0 11 41 c6 23 9
47 6 55 -6 16 -91 20 -100 5z"/>
<path d="M996 1263 c-3 -4 15 -28 41 -55 34 -35 55 -48 75 -48 36 0 35 11 -2
66 -27 39 -35 44 -69 44 -21 0 -41 -3 -45 -7z"/>
<path d="M1115 1260 c-3 -5 8 -30 25 -55 30 -43 33 -45 81 -45 56 0 55 -1 23
78 -12 31 -15 32 -68 32 -30 0 -58 -4 -61 -10z"/>
<path d="M1263 1255 c-3 -9 1 -32 9 -53 14 -36 15 -37 68 -37 l55 0 3 38 c5
54 -10 67 -75 67 -39 0 -55 -4 -60 -15z"/>
<path d="M1417 1263 c-4 -3 -7 -28 -7 -55 l0 -48 55 0 54 0 12 39 c18 59 9 71
-54 71 -30 0 -57 -3 -60 -7z"/>
<path d="M1574 1262 c-11 -8 -34 -66 -34 -88 0 -10 14 -14 44 -14 40 0 48 4
76 40 42 53 35 70 -27 70 -26 0 -53 -4 -59 -8z"/>
<path d="M1724 1262 c-13 -9 -64 -84 -64 -94 0 -5 15 -8 33 -8 26 0 42 10 76
44 24 24 40 49 37 55 -8 12 -65 15 -82 3z"/>
<path d="M1130 1135 c0 -6 69 -35 84 -35 21 1 -39 40 -61 40 -13 0 -23 -2 -23
-5z"/>
<path d="M1210 1135 c0 -8 102 -57 107 -51 3 2 -3 16 -14 30 -14 19 -27 25
-55 26 -21 0 -38 -2 -38 -5z"/>
<path d="M1310 1133 c0 -4 16 -21 36 -37 39 -31 58 -25 52 15 -2 20 -10 24
-45 27 -24 2 -43 0 -43 -5z"/>
<path d="M1410 1105 c0 -19 3 -35 7 -35 11 0 73 51 73 61 0 5 -18 9 -40 9 -39
0 -40 -1 -40 -35z"/>
<path d="M1501 1113 c-12 -14 -20 -28 -18 -30 5 -4 84 30 107 46 11 8 5 11
-27 11 -33 0 -46 -5 -62 -27z"/>
<path d="M1599 1114 l-24 -25 50 21 c62 27 65 30 28 30 -19 0 -38 -9 -54 -26z"/>
<path d="M1276 898 c-27 -57 -50 -109 -53 -115 -3 -8 3 -13 15 -13 15 0 29 19
56 77 40 84 38 83 77 9 33 -61 65 -86 114 -86 45 0 95 29 95 56 0 19 -29 18
-51 -2 -22 -20 -63 -21 -85 -3 -21 17 -47 69 -35 69 5 0 12 9 16 19 3 10 19
24 35 31 24 10 35 9 61 -4 54 -27 79 -17 41 17 -49 45 -122 41 -161 -9 l-20
-25 -21 40 c-11 23 -24 41 -29 41 -4 0 -29 -46 -55 -102z"/>
<path d="M735 1881 c-7 -12 12 -24 25 -16 11 7 4 25 -10 25 -5 0 -11 -4 -15
-9z"/>
<path d="M2042 1876 c1 -10 8 -17 13 -17 15 1 12 24 -3 29 -9 3 -13 -2 -10
-12z"/>
<path d="M595 1810 c-4 -6 -3 -16 3 -22 6 -6 12 -6 17 2 4 6 3 16 -3 22 -6 6
-12 6 -17 -2z"/>
<path d="M2185 1810 c-7 -12 2 -30 16 -30 5 0 9 9 9 20 0 21 -15 27 -25 10z"/>
<path d="M423 1630 c-40 -24 -63 -67 -63 -117 0 -59 15 -71 29 -23 21 70 99
100 161 64 27 -17 59 -15 90 5 12 8 11 14 -10 36 -14 15 -37 33 -52 41 -39 20
-117 18 -155 -6z"/>
<path d="M2225 1639 c-26 -15 -75 -61 -75 -70 0 -12 59 -32 79 -26 14 3 18 1
14 -10 -6 -15 -14 -15 -123 3 -48 9 -29 -7 43 -36 l59 -23 -4 -55 c-3 -53 -2
-55 23 -58 22 -2 28 3 35 29 13 42 34 47 34 7 0 -22 -10 -42 -37 -70 l-38 -38
-80 7 c-44 4 -84 6 -88 3 -5 -2 -7 -34 -6 -72 2 -56 -2 -73 -21 -99 -14 -20
-20 -40 -17 -54 3 -12 10 -38 14 -57 9 -37 29 -45 46 -19 8 12 6 26 -6 52 -21
44 -21 66 0 74 11 4 23 -3 37 -20 25 -31 41 -34 50 -11 12 31 6 54 -13 54 -24
0 -36 29 -16 36 9 4 30 -7 50 -25 20 -17 39 -31 44 -31 4 0 22 -22 39 -50 19
-31 45 -56 67 -67 27 -13 35 -23 35 -42 0 -15 5 -42 10 -61 6 -19 12 -63 14
-98 3 -63 2 -64 -38 -99 -23 -19 -51 -39 -63 -44 -15 -6 -23 -17 -23 -33 0
-14 -4 -28 -10 -31 -13 -8 -13 -52 -1 -60 11 -6 41 22 41 39 0 34 35 79 82
104 28 15 59 35 69 44 22 21 29 22 29 6 0 -7 -25 -37 -55 -68 -46 -47 -56 -63
-61 -103 -6 -38 -4 -47 8 -47 21 0 42 26 35 44 -3 8 1 17 9 20 8 3 14 14 14
24 0 10 25 41 55 70 l56 51 -16 30 c-8 17 -15 40 -15 52 0 27 100 123 114 109
6 -6 4 -16 -6 -27 -28 -33 -33 -47 -14 -40 15 6 14 -1 -8 -37 -29 -50 -38 -95
-11 -60 13 17 14 14 8 -33 -4 -38 -1 -66 11 -98 17 -42 43 -65 32 -27 -2 9 -8
33 -12 52 l-7 35 42 -38 c22 -20 46 -37 51 -37 13 0 13 27 0 35 -6 3 -17 20
-26 37 -15 29 -15 30 5 23 25 -8 25 -7 5 40 -16 40 -13 60 6 26 18 -34 32 -25
24 16 -6 30 -4 35 8 30 13 -5 15 5 14 59 l-1 65 -47 -2 c-53 -3 -73 9 -88 55
-7 21 -30 46 -70 75 -92 67 -102 89 -94 205 4 59 3 100 -3 108 -16 20 -24 66
-13 73 5 3 10 31 10 61 0 48 -4 59 -34 91 -31 34 -38 37 -97 40 -37 2 -73 -1
-84 -8z m135 -84 c29 -15 57 -52 47 -62 -3 -2 -8 5 -12 17 -9 29 -68 53 -109
45 -23 -5 -27 -4 -16 4 21 15 56 13 90 -4z m-230 -335 c-30 -23 -40 -17 -40
21 l0 30 32 -17 31 -16 -23 -18z"/>
<path d="M464 1553 c-33 -6 -52 -34 -85 -119 -28 -74 -29 -85 -23 -171 8 -111
5 -118 -96 -198 -38 -31 -70 -63 -70 -72 0 -9 -10 -27 -21 -39 -16 -17 -29
-22 -50 -17 -16 3 -40 2 -55 -1 -21 -6 -24 -9 -14 -21 12 -15 10 -53 -5 -89
-7 -16 -5 -18 15 -13 21 5 22 3 17 -29 -7 -41 7 -44 27 -6 21 37 21 4 1 -44
-14 -34 -14 -35 5 -29 27 8 25 -3 -6 -48 -14 -21 -24 -41 -21 -44 9 -8 51 17
74 45 21 24 23 25 23 7 0 -11 -4 -35 -9 -53 -12 -41 3 -42 25 -1 11 22 15 50
12 95 -2 51 -1 61 9 49 24 -34 20 4 -6 52 -17 31 -23 49 -15 46 19 -7 17 4 -6
37 -35 49 -6 41 55 -15 l59 -54 -17 -36 c-9 -20 -17 -41 -17 -48 0 -7 23 -35
50 -62 54 -53 82 -98 74 -119 -6 -16 21 -39 38 -34 8 3 12 19 10 44 -3 32 -14
49 -64 100 -37 38 -58 67 -53 74 5 8 13 6 29 -8 11 -10 45 -32 75 -48 51 -27
77 -61 72 -92 -3 -15 27 -52 41 -52 25 0 -8 117 -38 133 -41 22 -103 79 -98
90 2 7 6 39 8 72 8 108 24 158 60 180 17 11 45 40 61 65 31 47 119 115 135
105 17 -11 11 -25 -16 -35 -20 -8 -24 -14 -19 -33 12 -39 23 -41 54 -9 34 37
37 38 51 12 8 -15 5 -28 -11 -56 -17 -32 -19 -41 -8 -61 15 -28 39 -30 39 -4
0 10 7 34 15 54 14 33 13 37 -10 71 -21 30 -25 49 -25 106 0 38 -3 71 -7 73
-5 2 -43 1 -87 -3 l-79 -7 -33 36 c-36 38 -50 72 -39 91 10 17 35 -8 35 -35 0
-17 6 -22 30 -22 l29 0 -6 57 -6 57 72 28 c40 15 70 29 67 32 -3 3 -35 0 -71
-7 -57 -11 -68 -10 -83 3 -19 17 -66 27 -98 20z m242 -351 c-3 -3 -15 3 -26
13 l-21 19 23 18 c23 17 23 17 26 -13 2 -17 1 -33 -2 -37z"/>
</g>
</svg>
