<!DOCTYPE svg PUBLIC "-//W3C//DTD SVG 20010904//EN" "http://www.w3.org/TR/2001/REC-SVG-20010904/DTD/svg10.dtd">
<svg version="1.0" xmlns="http://www.w3.org/2000/svg" width="527px" height="527px" viewBox="0 0 5270 5270" preserveAspectRatio="xMidYMid meet">
<g id="layer101" fill="#bb1c24" stroke="none">
 <path d="M2299 4405 c-110 -35 -204 -130 -239 -244 -20 -62 -20 -95 -20 -1535 0 -1631 -4 -1539 66 -1644 37 -56 92 -101 164 -136 43 -20 59 -21 375 -21 l330 0 66 32 c79 39 140 102 177 181 l27 57 0 1525 0 1525 -27 57 c-37 79 -98 142 -177 181 l-66 32 -315 2 c-251 2 -324 -1 -361 -12z"/>
 <path d="M630 4374 c-144 -39 -246 -153 -270 -300 -14 -82 -13 -1840 0 -1923 28 -168 147 -285 319 -312 47 -7 170 -9 340 -7 294 5 312 8 407 73 61 42 109 106 135 180 18 52 19 95 19 1023 0 1069 3 1022 -63 1119 -40 57 -114 116 -177 140 -64 24 -626 30 -710 7z"/>
 <path d="M3997 4379 c-107 -26 -201 -105 -251 -209 l-31 -65 0 -805 0 -805 27 -57 c37 -79 98 -142 177 -181 l66 -32 326 -3 c312 -3 329 -2 383 18 75 29 133 74 178 140 70 102 69 86 66 952 l-3 773 -32 66 c-39 80 -111 150 -191 187 l-57 27 -310 2 c-170 1 -327 -2 -348 -8z"/>
 </g>
<g id="layer102" fill="#1689c9" stroke="none">
 <path d="M2299 4405 c-110 -35 -204 -130 -239 -244 -20 -62 -20 -95 -20 -1535 0 -1631 -4 -1539 66 -1644 37 -56 92 -101 164 -136 43 -20 59 -21 375 -21 l330 0 66 32 c79 39 140 102 177 181 l27 57 0 1525 0 1525 -27 57 c-37 79 -98 142 -177 181 l-66 32 -315 2 c-251 2 -324 -1 -361 -12z"/>
 <path d="M630 4374 c-144 -39 -246 -153 -270 -300 -14 -82 -13 -1840 0 -1923 28 -168 147 -285 319 -312 47 -7 170 -9 340 -7 294 5 312 8 407 73 61 42 109 106 135 180 18 52 19 95 19 1023 0 1069 3 1022 -63 1119 -40 57 -114 116 -177 140 -64 24 -626 30 -710 7z"/>
 </g>
<g id="layer103" fill="#f8cc52" stroke="none">
 <path d="M630 4374 c-144 -39 -246 -153 -270 -300 -14 -82 -13 -1840 0 -1923 28 -168 147 -285 319 -312 47 -7 170 -9 340 -7 294 5 312 8 407 73 61 42 109 106 135 180 18 52 19 95 19 1023 0 1069 3 1022 -63 1119 -40 57 -114 116 -177 140 -64 24 -626 30 -710 7z"/>
 </g>

</svg>