<!DOCTYPE svg PUBLIC "-//W3C//DTD SVG 20010904//EN" "http://www.w3.org/TR/2001/REC-SVG-20010904/DTD/svg10.dtd">
<svg version="1.0" xmlns="http://www.w3.org/2000/svg" width="256px" height="256px" viewBox="0 0 2560 2560" preserveAspectRatio="xMidYMid meet">
<g id="layer101" fill="#000000" stroke="none">
 <path d="M2128 2327 c-55 -16 -121 -59 -149 -98 -30 -42 -59 -111 -59 -141 0 -24 -14 -35 -133 -102 l-133 -76 -369 0 -369 0 -131 74 c-123 70 -131 77 -133 107 -6 81 -83 182 -165 220 -58 26 -167 25 -227 -2 -96 -43 -159 -132 -168 -235 -9 -111 45 -212 145 -270 59 -35 163 -44 227 -20 l44 17 54 -31 c29 -18 86 -51 127 -75 l74 -44 189 -326 188 -326 0 -141 0 -141 -39 -34 c-121 -103 -128 -296 -14 -410 55 -55 105 -76 191 -81 63 -4 79 -1 127 22 179 88 219 309 82 451 l-52 54 5 153 5 153 49 85 c27 47 109 189 182 315 l133 230 126 73 125 73 52 -16 c104 -31 197 -11 276 60 185 166 83 467 -166 490 -26 3 -68 -1 -94 -8z m-700 -874 c-72 -126 -134 -232 -138 -236 -4 -5 -63 88 -130 205 -68 117 -130 223 -138 236 l-14 22 275 0 275 0 -130 -227z"/>
 </g>

</svg>