<!DOCTYPE svg PUBLIC "-//W3C//DTD SVG 20010904//EN" "http://www.w3.org/TR/2001/REC-SVG-20010904/DTD/svg10.dtd">
<svg version="1.0" xmlns="http://www.w3.org/2000/svg" width="64px" height="64px" viewBox="0 0 640 640" preserveAspectRatio="xMidYMid meet">
<g id="layer101" fill="#1e7c1e" stroke="none">
 <path d="M34 606 l-34 -34 0 -252 0 -252 34 -34 34 -34 252 0 252 0 34 34 34 34 0 252 0 252 -34 34 -34 34 -252 0 -252 0 -34 -34z"/>
 </g>
<g id="layer102" fill="#208420" stroke="none">
 <path d="M34 606 l-34 -34 0 -252 0 -252 34 -34 34 -34 252 0 252 0 34 34 34 34 0 252 0 252 -34 34 -34 34 -252 0 -252 0 -34 -34z m455 -105 c12 -16 21 -33 21 -38 0 -4 -9 6 -20 22 -11 17 -32 33 -47 36 l-28 7 27 1 c19 1 33 -7 47 -28z m-221 -28 c-10 -2 -26 -2 -35 0 -10 3 -2 5 17 5 19 0 27 -2 18 -5z m70 -30 c15 -16 19 -21 7 -12 -11 9 -29 21 -40 27 -11 6 -14 12 -8 12 7 0 25 -12 41 -27z m179 -30 c-3 -10 -5 -4 -5 12 0 17 2 24 5 18 2 -7 2 -21 0 -30z"/>
 </g>
<g id="layer103" fill="#249324" stroke="none">
 <path d="M307 630 l-259 -5 -24 -28 c-24 -28 -24 -28 -24 -279 l0 -250 34 -34 34 -34 252 0 252 0 34 34 34 34 0 245 c0 135 -3 252 -6 261 -3 8 -20 25 -37 38 -32 23 -33 23 -290 18z m187 -123 c18 -24 22 -47 26 -153 3 -68 2 -124 -2 -124 -5 0 -8 49 -8 109 0 96 -3 112 -23 142 -15 22 -32 35 -50 37 -15 2 -25 8 -21 13 11 19 57 4 78 -24z m-167 -47 c30 -18 70 -76 60 -87 -3 -2 -8 5 -12 16 -11 35 -70 72 -127 81 l-53 8 50 1 c34 1 60 -5 82 -19z m-132 -190 l20 -25 -22 19 c-13 11 -23 24 -23 29 0 6 1 8 3 6 1 -2 11 -15 22 -29z m58 -27 c-7 -2 -19 -2 -25 0 -7 3 -2 5 12 5 14 0 19 -2 13 -5z"/>
 </g>
<g id="layer104" fill="#2ab02a" stroke="none">
 <path d="M419 487 c25 -41 31 -147 7 -147 -8 0 -17 -15 -20 -33 -3 -19 -13 -42 -22 -53 -15 -19 -15 -19 -6 1 15 32 8 107 -13 144 -59 101 -216 89 -259 -19 -15 -38 -18 -40 -61 -40 l-45 0 0 -136 0 -136 34 -34 34 -34 252 0 252 0 34 34 34 34 0 136 0 136 -55 0 -55 0 0 -49 c0 -27 5 -51 11 -53 6 -2 9 -15 6 -28 l-4 -25 -8 23 c-4 12 -11 22 -16 22 -5 0 -9 49 -9 109 0 96 -3 112 -23 142 -17 25 -31 35 -56 37 l-34 3 22 -34z m-121 -114 c21 -28 14 -33 -48 -33 -57 0 -60 -1 -60 -24 0 -37 27 -59 68 -54 30 4 32 3 16 -9 -57 -42 -132 29 -104 98 7 17 23 35 34 40 29 12 78 2 94 -18z m142 -133 c0 -5 -5 -10 -11 -10 -5 0 -7 5 -4 10 3 6 8 10 11 10 2 0 4 -4 4 -10z"/>
 </g>
<g id="layer105" fill="#ffffff" stroke="none">
 <path d="M419 487 c18 -29 21 -50 21 -141 0 -82 -4 -111 -15 -122 -8 -9 -15 -24 -15 -35 0 -17 7 -19 60 -19 l60 0 0 30 c0 17 -4 30 -10 30 -6 0 -10 43 -10 109 0 96 -3 112 -23 142 -17 25 -31 35 -56 37 l-34 3 22 -34z"/>
 <path d="M170 452 c-38 -20 -80 -89 -80 -132 0 -14 10 -46 22 -70 55 -107 201 -107 256 0 28 56 28 84 0 140 -26 50 -74 80 -128 80 -19 0 -51 -8 -70 -18z m103 -61 c13 -5 30 -24 37 -41 11 -27 11 -36 -3 -65 -43 -89 -175 -26 -137 66 18 43 56 58 103 40z"/>
 </g>

</svg>