<?xml version="1.0" standalone="no"?>
<!DOCTYPE svg PUBLIC "-//W3C//DTD SVG 20010904//EN"
 "http://www.w3.org/TR/2001/REC-SVG-20010904/DTD/svg10.dtd">
<svg version="1.0" xmlns="http://www.w3.org/2000/svg"
 width="77.057511pt" height="96.670936pt" viewBox="0 0 77.057511 96.670936"
 preserveAspectRatio="xMidYMid meet">
<metadata>
Created by potrace 1.12, written by Peter Selinger 2001-2015
</metadata>
<g transform="translate(-14.919004,107.741968) scale(0.100000,-0.100000)"
fill="#1a5cc8" stroke="none">
<path d="M683 1068 c-29 -8 -40 -10 -208 -28 l-100 -10 -102 -105 c-56 -57
-107 -113 -113 -125 l-11 -20 33 20 c33 20 66 46 139 109 35 29 39 31 39 13 0
-43 46 -28 63 21 6 16 18 18 79 17 145 -3 271 11 294 32 21 19 22 19 56 -2 20
-11 43 -18 52 -14 14 5 12 10 -11 30 -16 13 -31 24 -35 24 -4 0 -18 11 -32 25
-19 19 -33 24 -69 22 -25 -1 -58 -5 -74 -9z m201 -73 c11 -8 15 -15 10 -15 -6
0 -19 7 -30 15 -10 8 -14 14 -9 14 6 0 19 -6 29 -14z"/>
<path d="M516 874 c-30 -30 -34 -65 -10 -89 22 -22 9 -32 -15 -11 -16 15 -19
15 -31 1 -7 -8 -20 -14 -29 -14 -13 1 -13 2 2 6 20 5 23 43 5 61 -19 19 -47
14 -74 -14 -20 -19 -24 -31 -19 -52 4 -15 12 -30 18 -34 8 -5 6 -8 -5 -8 -10
0 -18 5 -18 10 0 6 -7 10 -15 10 -9 0 -20 11 -25 25 -12 31 -30 32 -58 2 -17
-18 -21 -31 -16 -55 5 -26 3 -32 -10 -32 -10 0 -14 5 -11 10 8 13 -1 13 -24 0
-10 -5 -22 -17 -25 -26 -6 -14 -1 -16 35 -10 l41 7 -6 -53 c-4 -29 -7 -79 -8
-110 0 -42 -4 -58 -14 -58 -20 0 -17 -13 7 -28 16 -10 18 -16 10 -26 -9 -10
-8 -15 5 -20 23 -9 24 -8 24 13 0 25 20 38 21 14 1 -10 1 -24 0 -30 -1 -8 5
-10 14 -7 8 3 15 12 15 19 0 9 8 11 23 7 18 -5 19 -7 5 -10 -10 -2 -18 -10
-18 -18 0 -9 -11 -14 -31 -14 -16 0 -28 -4 -25 -9 3 -5 16 -6 29 -3 21 5 21 5
5 -12 -10 -10 -17 -25 -17 -34 1 -15 2 -14 6 1 6 24 27 16 31 -12 3 -15 8 -21
19 -17 8 3 18 6 23 6 5 0 11 8 13 18 4 15 6 15 12 -3 5 -17 14 -20 48 -18 29
2 36 0 23 -5 -19 -8 -19 -9 1 -14 24 -6 33 -1 33 19 0 8 7 22 17 31 15 15 14
17 -8 23 -24 7 -24 7 3 8 15 1 30 -4 33 -9 4 -6 11 -8 16 -5 14 10 10 -11 -5
-24 -8 -7 -12 -20 -9 -31 4 -16 8 -17 24 -7 23 15 29 8 31 -36 1 -20 6 -35 12
-34 5 1 10 -2 11 -8 1 -23 18 -35 50 -35 18 0 36 -6 38 -12 4 -9 8 -9 14 -3 4
6 33 10 64 11 40 0 67 7 90 22 24 15 29 22 16 22 -25 0 -18 34 8 38 11 2 25 9
30 14 7 8 6 9 -1 5 -7 -4 -11 3 -11 18 0 14 5 25 11 25 6 0 4 4 -4 10 -8 5
-14 21 -15 36 0 15 -7 29 -15 31 -12 4 -12 3 -1 -5 9 -7 10 -12 2 -16 -14 -9
-33 2 -25 15 3 6 -2 19 -11 29 -17 18 -17 19 3 15 15 -2 19 0 15 11 -3 8 -9
14 -14 14 -5 0 -9 7 -9 16 0 11 6 14 22 8 20 -6 21 -5 9 10 -7 9 -23 16 -35
16 -33 0 -66 11 -66 23 0 17 -54 57 -64 47 -6 -6 -4 -15 5 -26 12 -14 11 -16
-6 -13 -15 3 -22 15 -26 44 -6 39 -6 39 -8 -12 -1 -38 -5 -53 -15 -53 -23 0
-27 30 -20 147 6 94 9 111 20 102 9 -7 14 -32 14 -67 0 -81 8 -60 11 28 l2 75
-27 -2 c-55 -4 -24 24 47 42 39 10 84 24 98 33 23 13 29 12 68 -8 49 -25 65
-21 26 7 -14 10 -35 26 -48 37 l-22 18 25 -7 c24 -7 24 -7 5 9 -28 21 -48 20
-139 -10 l-79 -27 -19 27 c-26 35 -67 35 -102 0z m-16 -158 c0 -8 -11 -13 -25
-13 -29 0 -33 12 -8 26 20 11 33 6 33 -13z m-155 -91 c-7 -59 -6 -65 11 -66
17 -1 17 -2 2 -6 -17 -4 -23 -32 -19 -89 2 -14 -5 -23 -18 -27 -26 -6 -28 -27
-3 -28 16 -1 16 -2 0 -6 -10 -2 -24 1 -31 9 -11 10 -12 15 -1 25 7 7 19 13 26
13 9 1 8 4 -3 10 -14 8 -16 24 -12 97 6 119 9 133 34 133 19 0 20 -4 14 -65z
m148 -48 c-2 -95 0 -114 12 -114 8 0 15 4 15 8 0 3 9 9 20 12 19 5 20 1 18
-49 -2 -36 -7 -54 -15 -54 -15 0 -18 56 -3 65 6 4 8 11 4 17 -3 5 -15 -4 -25
-22 -11 -17 -17 -35 -14 -40 3 -6 -1 -7 -9 -4 -11 4 -14 14 -10 30 9 35 -5 29
-18 -7 -7 -20 -14 -27 -21 -20 -5 5 -6 18 -2 28 5 10 9 21 9 25 1 3 4 10 9 14
11 11 8 44 -4 44 -7 0 -9 30 -8 85 2 64 6 84 16 81 7 -3 15 -1 18 4 4 6 7 10
8 10 1 0 1 -51 0 -113z m65 -48 c-2 -25 -8 -34 -20 -33 -10 1 -18 -2 -18 -8 0
-5 -5 -6 -11 -2 -8 5 -7 9 4 15 8 5 18 25 22 45 8 46 28 32 23 -17z m-154 -31
c-3 -4 -15 -7 -27 -7 -17 1 -18 2 -4 6 9 2 17 12 17 21 0 14 2 15 9 2 6 -8 7
-18 5 -22z m-124 0 c0 -7 -5 -20 -10 -28 -8 -12 -10 -11 -10 7 0 12 -8 24 -17
26 -11 3 -7 5 10 6 16 1 27 -4 27 -11z m-33 -75 c-16 -16 -17 -16 -17 0 0 10
5 15 10 12 6 -3 10 -1 10 6 0 7 3 9 7 5 4 -3 -1 -14 -10 -23z m563 -39 c0 -14
-3 -14 -15 -4 -8 7 -15 14 -15 16 0 2 7 4 15 4 8 0 15 -7 15 -16z m-327 -14
c-6 -23 -43 -28 -43 -6 0 12 12 20 42 25 3 0 4 -8 1 -19z m77 -20 c0 -5 -9
-10 -20 -10 -11 0 -20 5 -20 10 0 6 9 10 20 10 11 0 20 -4 20 -10z m-119 -50
c21 0 26 -16 7 -23 -14 -4 -38 21 -37 38 0 6 3 4 6 -2 2 -7 13 -13 24 -13z"/>
<path d="M310 655 c0 -9 5 -15 11 -13 6 2 11 8 11 13 0 5 -5 11 -11 13 -6 2
-11 -4 -11 -13z"/>
<path d="M860 715 c0 -41 4 -65 11 -65 7 0 9 9 5 23 -3 14 1 32 9 43 20 26 19
37 -5 52 -19 12 -20 10 -20 -53z"/>
<path d="M830 580 c-24 -21 -22 -37 5 -27 8 4 14 12 13 19 -2 8 5 12 16 10 11
-2 15 1 11 7 -9 16 -19 14 -45 -9z"/>
<path d="M182 336 c-29 -17 -38 -25 -20 -21 37 9 58 18 58 26 0 12 -9 10 -38
-5z"/>
<path d="M393 229 c-25 -9 -26 -10 -17 -33 5 -13 8 -13 20 -2 7 8 19 16 26 19
9 3 10 8 3 15 -6 6 -19 7 -32 1z"/>
</g>
</svg>
